<svg width="80" height="55" viewBox="0 0 80 55" fill="none" xmlns="http://www.w3.org/2000/svg">
<g clip-path="url(#clip0_34_61)">
<path d="M77.0166 47.1224H8.85934V51.9372H77.0166V47.1224Z" fill="black"/>
<path fill-rule="evenodd" clip-rule="evenodd" d="M-0.000350327 27.818L7.76941 53.4492C7.76941 53.4492 8.82657 55.3764 10.0783 53.0987C11.2976 50.7822 30.5274 0 30.5274 0C30.5274 0 26.9668 6.00873 22.3426 14.8077C18.2631 22.5165 13.3535 32.4121 9.24164 42.3012C7.98992 40.692 0.79738 28.3955 -0.00683594 27.818" fill="black"/>
<path d="M26.5521 38.8945L31.4293 40.4973C31.105 41.9767 30.5926 43.1966 29.8857 44.1895C29.1788 45.1823 28.2837 45.9544 27.2525 46.4346C26.1954 46.9472 24.8464 47.2068 23.2379 47.2068C21.2793 47.2068 19.6773 46.8823 18.4256 46.2724C17.1739 45.6624 16.1167 44.5723 15.2152 43.0279C14.2878 41.4511 13.8338 39.498 13.8338 37.0517C13.8338 33.8396 14.638 31.3674 16.24 29.6348C17.816 27.9023 20.06 27.0328 22.9785 27.0328C25.255 27.0328 27.058 27.513 28.3421 28.5122C29.6587 29.505 30.6186 31.017 31.2606 33.1064L26.3186 34.2614C26.1565 33.6839 25.9684 33.2362 25.7738 32.9766C25.4495 32.4964 25.0993 32.1395 24.6194 31.9189C24.1719 31.6594 23.6919 31.5361 23.1082 31.5361C21.8565 31.5361 20.8901 32.0811 20.2221 33.1713C19.7098 34.0084 19.4503 35.2932 19.4503 37.0257C19.4503 39.2125 19.7422 40.6854 20.3518 41.4901C20.9615 42.2947 21.8306 42.6775 22.9201 42.6775C24.0097 42.6775 24.7815 42.3531 25.3587 41.7172C25.9035 41.0748 26.2927 40.1079 26.5456 38.888M38.3948 37.3242L33.5825 36.7791C33.7771 35.8772 34.03 35.1439 34.3867 34.6248C34.711 34.1122 35.2233 33.6644 35.8654 33.2751C36.3129 33.0155 36.955 32.7949 37.7592 32.6327C38.5634 32.5029 39.426 32.4056 40.36 32.4056C41.8711 32.4056 43.0904 32.5029 43.9854 32.6976C44.9193 32.8598 45.6522 33.2427 46.2619 33.8202C46.6769 34.2355 47.0336 34.7805 47.2866 35.5203C47.5136 36.26 47.6368 36.9673 47.6368 37.6097V43.8715C47.6368 44.5139 47.6692 45.0265 47.7665 45.4159C47.8314 45.7987 48.0908 46.506 48.3437 47.116H43.6222C43.4276 46.7331 43.2396 46.214 43.2071 46.0258C43.1423 45.8311 43.0774 45.5456 43.0126 45.1239C42.3705 45.8311 41.696 46.3113 41.0539 46.6033C40.1524 46.9862 39.1277 47.1808 37.9732 47.1808C36.3972 47.1808 35.2104 46.798 34.4126 46.0258C33.6084 45.2212 33.1934 44.2608 33.1934 43.1383C33.1934 42.0157 33.4787 41.1786 34.0624 40.4713C34.6721 39.7965 35.7292 39.2838 37.3052 38.9269C39.199 38.5441 40.4183 38.2521 40.9631 38.0899C41.5079 37.9277 42.1175 37.707 42.7272 37.4475C42.7272 36.7726 42.5975 36.2924 42.3445 36.0329C42.0851 35.7733 41.67 35.65 40.9955 35.65C40.1913 35.65 39.5817 35.7798 39.1666 36.0653C38.8488 36.2925 38.5894 36.7077 38.3948 37.3177M42.7272 40.1469C42.0527 40.4389 41.3133 40.6595 40.574 40.8542C39.5493 41.1462 38.9072 41.4641 38.6478 41.7237C38.3559 42.0157 38.2327 42.3661 38.2327 42.7165C38.2327 43.1642 38.3624 43.4887 38.6478 43.7742C38.9072 44.0337 39.3223 44.157 39.8346 44.157C40.4118 44.157 40.9242 44.0272 41.4106 43.7417C41.8906 43.4497 42.2473 43.0993 42.4353 42.684C42.6299 42.2363 42.7272 41.6912 42.7272 41.0164V40.1469ZM50.6915 32.73H55.4131V35.0401C55.8606 34.0473 56.3146 33.3724 56.7945 32.9831C57.2744 32.6003 57.8841 32.4056 58.591 32.4056C59.2979 32.4056 60.1346 32.6652 61.0296 33.1453L59.4536 37.0322C58.8764 36.7402 58.3964 36.6169 58.0397 36.6169C57.3976 36.6169 56.8853 36.9089 56.5286 37.4864C56.0162 38.3235 55.7568 39.8613 55.7568 42.1454V47.1224H50.685V32.73H50.6915ZM76.822 41.1462H66.7434C66.8407 42.0157 67.0677 42.6581 67.4179 43.1058C67.8978 43.7158 68.5075 44.0078 69.3117 44.0078C69.7916 44.0078 70.2781 43.878 70.6931 43.6249C70.985 43.4303 71.2704 43.1447 71.5946 42.723L76.5367 43.2031C75.7649 44.6177 74.8699 45.643 73.8062 46.2529C72.7167 46.8629 71.2055 47.1873 69.182 47.1873C67.4503 47.1873 66.1013 46.9278 65.1026 46.3827C64.1103 45.8701 63.2736 45.033 62.6315 43.878C61.957 42.723 61.6392 41.3733 61.6392 39.8289C61.6392 37.6097 62.3137 35.8447 63.5979 34.4626C64.9145 33.1129 66.7434 32.4056 69.0588 32.4056C70.9201 32.4056 72.3989 32.73 73.4884 33.34C74.578 33.95 75.4147 34.8519 75.9595 36.0069C76.5367 37.162 76.8285 38.6739 76.8285 40.5362V41.1462H76.822ZM71.7179 38.5441C71.6206 37.5189 71.3352 36.7467 70.9137 36.2989C70.4986 35.8512 69.9538 35.6241 69.2469 35.6241C68.4426 35.6241 67.833 35.9745 67.3531 36.6493C67.0288 37.0646 66.8407 37.707 66.7758 38.5441H71.7179Z" fill="black"/>
<path fill-rule="evenodd" clip-rule="evenodd" d="M64.9793 52.2292C64.9793 52.2292 66.2311 53.3194 67.3855 53.6763C68.5724 54.0267 70.0186 54.7989 70.2456 55.0584C70.2456 55.0584 68.2546 53.261 67.1974 52.7484C66.1727 52.2357 65.2388 52.106 64.9793 52.2357" fill="black"/>
<path fill-rule="evenodd" clip-rule="evenodd" d="M63.3057 52.0995C63.3057 52.0995 64.9725 51.775 66.1334 54.9286C66.1334 54.9286 65.1087 54.1889 64.4666 53.5141C63.7921 52.8392 63.3122 52.0995 63.3122 52.0995" fill="black"/>
<path fill-rule="evenodd" clip-rule="evenodd" d="M19.3271 43.2356C19.3271 43.2356 17.6927 43.0409 16.6291 42.431C15.6044 41.7886 14.0608 41.2759 13.743 41.2759C13.743 41.2759 16.3762 41.5355 17.4657 41.9508C18.5229 42.3336 19.2298 42.9436 19.3271 43.2356Z" fill="black"/>
<path fill-rule="evenodd" clip-rule="evenodd" d="M20.5464 44.3582C20.5464 44.3582 19.6449 42.9112 16.5642 44.1635C16.5642 44.1635 17.7835 44.4231 18.7175 44.449C19.6449 44.5139 20.5464 44.3517 20.5464 44.3517" fill="black"/>
<path fill-rule="evenodd" clip-rule="evenodd" d="M21.7657 43.586C21.1885 43.4887 20.6113 43.2356 20.1897 42.5608C19.8071 41.9184 19.8654 41.3733 20.3843 40.8282C20.3843 40.8282 21.1885 42.1131 21.2858 42.4051C21.4155 42.6646 21.7333 43.333 21.7657 43.5925" fill="black"/>
<path fill-rule="evenodd" clip-rule="evenodd" d="M24.2047 45.033C24.2047 45.033 23.0503 44.6826 23.0827 43.8131C23.1151 42.9111 24.1074 42.431 24.1074 42.431C24.1074 42.431 24.4901 44.3257 24.2047 45.033Z" fill="black"/>
<path fill-rule="evenodd" clip-rule="evenodd" d="M23.115 45.9609C23.115 45.9609 22.2135 44.5139 19.1328 45.7662C19.1328 45.7662 20.3521 46.0258 21.286 46.0518C22.2135 46.1166 23.115 45.9544 23.115 45.9544" fill="black"/>
<path fill-rule="evenodd" clip-rule="evenodd" d="M26.2605 48.0828C26.2605 48.0828 25.4563 46.5709 22.2783 47.6351C22.2783 47.6351 23.4976 47.9531 24.4315 48.0504C25.359 48.1477 26.2605 48.0828 26.2605 48.0828Z" fill="black"/>
<path fill-rule="evenodd" clip-rule="evenodd" d="M27.5123 47.1809C27.5123 47.1809 26.4551 46.9213 26.5784 45.9934C26.6756 45.059 27.3826 44.5139 27.3826 44.5139C27.3826 44.5139 27.7976 46.214 27.5123 47.1809Z" fill="black"/>
<path fill-rule="evenodd" clip-rule="evenodd" d="M27.927 48.855C27.927 48.855 25.2939 46.9278 24.4248 46.1556C23.5233 45.351 21.1171 43.7482 19.833 43.3914C19.833 43.3914 21.7916 43.6185 24.4897 45.8961C27.1552 48.1412 28.0503 48.5955 28.0503 48.5955C28.0503 48.5955 27.8557 48.9459 27.9206 48.855" fill="black"/>
<path fill-rule="evenodd" clip-rule="evenodd" d="M24.5283 51.7101C24.5283 51.7101 23.1468 52.7678 21.8951 53.0274C20.611 53.3194 19.0674 54.0202 18.8145 54.2797C18.8145 54.2797 21.026 52.5472 22.1545 52.067C23.2766 51.5868 24.2753 51.522 24.5283 51.7166" fill="black"/>
<path fill-rule="evenodd" clip-rule="evenodd" d="M26.2922 51.6517C26.2922 51.6517 24.5605 51.204 23.1143 54.4484C23.1143 54.4484 24.2363 53.7411 24.9756 53.0987C25.715 52.4239 26.2922 51.6517 26.2922 51.6517Z" fill="black"/>
<path fill-rule="evenodd" clip-rule="evenodd" d="M26.6753 50.1398C26.163 50.5227 25.5209 50.7498 24.7167 50.5227C23.9449 50.2956 23.5947 49.8478 23.5947 49.0432C23.5947 49.0432 25.1382 49.4585 25.4236 49.5883C25.7154 49.7181 26.4483 49.9711 26.6753 50.1333" fill="black"/>
<path fill-rule="evenodd" clip-rule="evenodd" d="M29.6006 49.4974C29.6006 49.4974 28.4462 50.0749 27.8365 49.3676C27.1944 48.6603 27.6095 47.5377 27.6095 47.5377C27.6095 47.5377 29.3087 48.7252 29.6006 49.4974Z" fill="black"/>
<path fill-rule="evenodd" clip-rule="evenodd" d="M29.4377 51.0093C29.4377 51.0093 27.7061 50.5291 26.2598 53.7736C26.2598 53.7736 27.3818 53.0663 28.1211 52.4239C28.8605 51.7815 29.4377 51.0093 29.4377 51.0093Z" fill="black"/>
<path fill-rule="evenodd" clip-rule="evenodd" d="M33.3879 50.302C33.3879 50.302 31.6887 49.7245 30.0154 52.8716C30.0154 52.8716 31.2023 52.2617 31.9741 51.6517C32.7783 51.0417 33.3879 50.302 33.3879 50.302Z" fill="black"/>
<path fill-rule="evenodd" clip-rule="evenodd" d="M33.7062 48.7252C33.7062 48.7252 32.7139 49.2703 32.1302 48.4981C31.5205 47.6935 31.6502 46.7332 31.6502 46.7332C31.6502 46.7332 33.2262 47.7584 33.7062 48.7252Z" fill="black"/>
<path fill-rule="evenodd" clip-rule="evenodd" d="M35.2493 49.6921C35.2493 49.6921 31.8443 50.1398 30.5926 50.1723C29.3085 50.2372 26.3251 50.7498 25.0409 51.4246C25.0409 51.4246 26.7077 50.1723 30.437 49.9127C34.1597 49.6856 35.1909 49.4001 35.1909 49.4001C35.1909 49.4001 35.2882 49.7829 35.2558 49.6921" fill="black"/>
<path fill-rule="evenodd" clip-rule="evenodd" d="M69.9541 43.9688C69.9541 43.9688 71.5885 43.7742 72.6521 43.1318C73.6768 42.4894 75.2204 41.9767 75.5706 41.9767C75.5706 41.9767 72.9051 42.2363 71.8155 42.6516C70.7259 43.0669 70.019 43.6444 69.9541 43.9688Z" fill="black"/>
<path fill-rule="evenodd" clip-rule="evenodd" d="M68.7021 45.0979C68.7021 45.0979 69.6036 43.6184 72.7167 44.9032C72.7167 44.9032 71.4974 45.1628 70.5634 45.1888C69.6036 45.2212 68.7021 45.0914 68.7021 45.0914" fill="black"/>
<path fill-rule="evenodd" clip-rule="evenodd" d="M67.4824 44.2933C68.0596 44.2284 68.6693 43.9429 69.0584 43.3005C69.4411 42.6257 69.3827 42.0806 68.8639 41.5355C68.8639 41.5355 68.0921 42.8528 67.9624 43.1123C67.8651 43.3719 67.5148 44.0402 67.4824 44.2998" fill="black"/>
<path fill-rule="evenodd" clip-rule="evenodd" d="M65.0446 45.7728C65.0446 45.7728 66.199 45.4224 66.1666 44.5204C66.1342 43.6185 65.1094 43.1383 65.1094 43.1383C65.1094 43.1383 64.7592 45.0331 65.0446 45.7728Z" fill="black"/>
<path fill-rule="evenodd" clip-rule="evenodd" d="M66.1338 46.7007C66.1338 46.7007 67.0353 45.2212 70.1484 46.506C70.1484 46.506 68.8966 46.7656 67.9627 46.7915C67.0288 46.824 66.1338 46.6942 66.1338 46.6942" fill="black"/>
<path fill-rule="evenodd" clip-rule="evenodd" d="M62.9882 48.8225C62.9882 48.8225 63.76 47.2782 66.9704 48.3748C66.9704 48.3748 65.7511 48.6992 64.8172 48.7901C63.8833 48.8874 62.9882 48.8225 62.9882 48.8225Z" fill="black"/>
<path fill-rule="evenodd" clip-rule="evenodd" d="M61.7041 47.9206C61.7041 47.9206 62.7612 47.661 62.664 46.7331C62.5343 45.7987 61.8273 45.2212 61.8273 45.2212C61.8273 45.2212 61.4122 46.9537 61.6976 47.9206" fill="black"/>
<path fill-rule="evenodd" clip-rule="evenodd" d="M61.315 49.6272C61.315 49.6272 63.9157 47.6675 64.8172 46.8954C65.7187 46.0907 68.1248 44.488 69.4414 44.0986C69.4414 44.0986 67.4503 44.3257 64.7523 46.6034C62.0543 48.881 61.1593 49.3352 61.1593 49.3352C61.1593 49.3352 61.3539 49.6856 61.3214 49.6272" fill="black"/>
<path fill-rule="evenodd" clip-rule="evenodd" d="M63.0527 50.6524C63.5002 51.0028 64.1099 51.2948 64.8492 51.1001C65.621 50.9379 65.9713 50.5551 66.0361 49.7829C66.0361 49.7829 64.525 50.1073 64.272 50.1982C63.9802 50.2631 63.2797 50.4902 63.0527 50.6459" fill="black"/>
<path fill-rule="evenodd" clip-rule="evenodd" d="M60.3223 49.8153C60.3223 49.8153 61.347 50.4577 61.9891 49.8153C62.6311 49.1729 62.3133 48.1152 62.3133 48.1152C62.3133 48.1152 60.6465 49.108 60.3223 49.8153Z" fill="black"/>
<path fill-rule="evenodd" clip-rule="evenodd" d="M60.3555 51.2624C60.3555 51.2624 62.0547 50.9379 63.2156 54.0915C63.2156 54.0915 62.1909 53.3518 61.5164 52.677C60.8743 52.0346 60.362 51.2624 60.362 51.2624" fill="black"/>
<path fill-rule="evenodd" clip-rule="evenodd" d="M56.665 50.3669C56.665 50.3669 58.3318 49.9192 59.7133 53.0014C59.7133 53.0014 58.6237 52.3266 57.9168 51.7166C57.2098 51.0742 56.665 50.3669 56.665 50.3669Z" fill="black"/>
<path fill-rule="evenodd" clip-rule="evenodd" d="M56.4697 48.8226C56.4697 48.8226 57.3712 49.4325 57.9809 48.6928C58.623 47.9855 58.5581 47.09 58.5581 47.09C58.5581 47.09 56.9821 47.9595 56.4697 48.8226Z" fill="black"/>
<path fill-rule="evenodd" clip-rule="evenodd" d="M54.9593 49.6597C54.9593 49.6597 58.1697 50.2696 59.3565 50.4318C60.5434 50.5616 63.3387 51.2365 64.4932 51.9438C64.4932 51.9438 62.982 50.6265 59.4863 50.1788C55.984 49.731 55.0566 49.3741 55.0566 49.3741C55.0566 49.3741 54.9269 49.7245 54.9593 49.6661" fill="black"/>
<path fill-rule="evenodd" clip-rule="evenodd" d="M32.1691 47.3107C32.1691 47.3107 30.5931 47.116 29.6008 46.506C28.6085 45.9285 27.1622 45.4159 26.8379 45.4159C26.8379 45.4159 29.3738 45.6755 30.3985 46.0583C31.4232 46.4411 32.0977 47.0251 32.1626 47.3107" fill="black"/>
<path fill-rule="evenodd" clip-rule="evenodd" d="M33.3228 48.3748C33.3228 48.3748 32.4861 46.9926 29.5352 48.1801C29.5352 48.1801 30.722 48.4397 31.5911 48.4721C32.4926 48.5046 33.3228 48.3748 33.3228 48.3748Z" fill="black"/>
<path fill-rule="evenodd" clip-rule="evenodd" d="M34.5099 47.6351C33.9651 47.5378 33.3879 47.2847 32.9988 46.6747C32.6486 46.0323 32.7069 45.5197 33.1934 45.0071C33.1934 45.0071 33.9327 46.227 34.0624 46.4866C34.1597 46.7461 34.4775 47.3885 34.5099 47.6416" fill="black"/>
<path fill-rule="evenodd" clip-rule="evenodd" d="M36.8253 49.0172C36.8253 49.0172 35.7357 48.6928 35.7681 47.8298C35.8006 46.9927 36.7604 46.5125 36.7604 46.5125C36.7604 46.5125 37.1107 48.3424 36.8253 49.0172Z" fill="black"/>
<path fill-rule="evenodd" clip-rule="evenodd" d="M35.7937 49.8802C35.7937 49.8802 34.9246 48.4981 31.9736 49.718C31.9736 49.718 33.1605 49.9776 34.062 50.01C34.9311 50.0425 35.7937 49.8802 35.7937 49.8802Z" fill="black"/>
<path fill-rule="evenodd" clip-rule="evenodd" d="M38.7837 51.9048C38.7837 51.9048 38.0119 50.4578 34.9961 51.4895C34.9961 51.4895 36.1505 51.8139 37.052 51.9048C37.1817 51.9048 37.3439 51.9048 37.4995 51.9372H38.401C38.628 51.9048 38.7837 51.9048 38.7837 51.9048Z" fill="black"/>
<path fill-rule="evenodd" clip-rule="evenodd" d="M39.9705 51.0677C39.9705 51.0677 38.9782 50.8082 39.1014 49.9127C39.1987 49.0432 39.8732 48.4981 39.8732 48.4981C39.8732 48.4981 40.2559 50.1333 39.9705 51.0677Z" fill="black"/>
<path fill-rule="evenodd" clip-rule="evenodd" d="M39.3936 51.9372C38.5894 51.3273 37.5322 50.5227 37.0199 50.0749C36.1832 49.3352 33.9068 47.7973 32.655 47.4404C32.655 47.4404 34.5488 47.6675 37.1171 49.8154C38.3689 50.9055 39.2379 51.5479 39.7503 51.9372H39.4001H39.3936Z" fill="black"/>
<path fill-rule="evenodd" clip-rule="evenodd" d="M43.6291 47.2457C43.6291 47.2457 44.2711 45.7338 44.2063 44.5139C44.1739 43.294 44.4657 41.7172 44.6214 41.3992C44.6214 41.3992 43.5642 43.8391 43.4021 44.9941C43.2075 46.1491 43.4021 47.0511 43.6291 47.2457Z" fill="black"/>
<path fill-rule="evenodd" clip-rule="evenodd" d="M44.0438 48.8875C44.0438 48.8875 43.1747 47.408 45.8079 45.2926C45.8079 45.2926 45.4576 46.5125 45.0361 47.3496C44.5886 48.1867 44.0438 48.8939 44.0438 48.8939" fill="black"/>
<path fill-rule="evenodd" clip-rule="evenodd" d="M42.7272 49.5948C42.9542 49.0497 43.0191 48.3749 42.5975 47.7324C42.2148 47.0576 41.696 46.8629 40.9631 47.0576C40.9631 47.0576 41.7349 48.3749 41.923 48.602C42.0851 48.7966 42.5326 49.439 42.7272 49.5948Z" fill="black"/>
<path fill-rule="evenodd" clip-rule="evenodd" d="M42.8893 51.9373C42.8893 51.5544 42.7596 51.0677 42.3121 50.8147C41.4755 50.4318 40.548 51.0742 40.548 51.0742C40.548 51.0742 41.1253 51.5544 41.7673 51.9438H42.8893V51.9373Z" fill="black"/>
<path fill-rule="evenodd" clip-rule="evenodd" d="M44.2059 51.9048C44.2059 51.9048 43.3368 50.4253 46.0024 48.3099C46.0024 48.3099 45.6198 49.5299 45.1982 50.3669C44.7831 51.204 44.2059 51.9113 44.2059 51.9113" fill="black"/>
<path fill-rule="evenodd" clip-rule="evenodd" d="M43.531 51.9372C43.3689 50.5876 43.304 48.7577 43.531 47.7908C43.531 47.7908 42.9214 49.2379 43.2716 51.9372H43.531Z" fill="black"/>
<path fill-rule="evenodd" clip-rule="evenodd" d="M55.0234 47.408C55.0234 47.408 56.6902 47.2133 57.7863 46.5709C58.8435 45.9285 60.387 45.3834 60.7373 45.3834C60.7373 45.3834 58.0392 45.6754 56.9172 46.0907C55.8277 46.506 55.1207 47.116 55.0234 47.408Z" fill="black"/>
<path fill-rule="evenodd" clip-rule="evenodd" d="M53.7725 48.563C53.7725 48.563 54.7064 47.0511 57.8519 48.3683C57.8519 48.3683 56.6002 48.6279 55.6338 48.6603C54.6999 48.6928 53.7725 48.563 53.7725 48.563Z" fill="black"/>
<path fill-rule="evenodd" clip-rule="evenodd" d="M52.5202 47.7649C53.0974 47.6675 53.707 47.4145 54.1221 46.7396C54.5048 46.0648 54.4464 45.5197 53.9275 44.9422C53.9275 44.9422 53.1233 46.2919 52.9936 46.545C52.8963 46.8045 52.5461 47.4794 52.5137 47.7649" fill="black"/>
<path fill-rule="evenodd" clip-rule="evenodd" d="M50.049 49.2379C50.049 49.2379 51.2359 48.8875 51.2035 47.9855C51.1386 47.0511 50.1139 46.5709 50.1139 46.5709C50.1139 46.5709 49.7312 48.4981 50.049 49.2379Z" fill="black"/>
<path fill-rule="evenodd" clip-rule="evenodd" d="M51.1387 50.2047C51.1387 50.2047 52.0726 48.6928 55.2181 50.01C55.2181 50.01 53.9664 50.2696 53 50.302C52.0726 50.3345 51.1387 50.2047 51.1387 50.2047Z" fill="black"/>
<path fill-rule="evenodd" clip-rule="evenodd" d="M48.3502 51.9373C48.8626 51.5544 49.9522 51.1975 51.9757 51.8724C51.9757 51.8724 51.9433 51.9048 51.8135 51.9373H48.3437H48.3502Z" fill="black"/>
<path fill-rule="evenodd" clip-rule="evenodd" d="M46.6774 51.457C46.6774 51.457 47.7346 51.165 47.6113 50.2371C47.5141 49.2703 46.7747 48.6927 46.7747 48.6927C46.7747 48.6927 46.3596 50.4577 46.6774 51.457Z" fill="black"/>
<path fill-rule="evenodd" clip-rule="evenodd" d="M47.8635 51.9372C48.6029 51.3597 49.4071 50.7498 49.8222 50.3929C50.7237 49.5883 53.1623 47.9531 54.5113 47.5637C54.5113 47.5637 52.4878 47.7908 49.7249 50.1009C48.791 50.938 48.0581 51.5155 47.5068 51.9308H47.8571L47.8635 51.9372Z" fill="black"/>
</g>
<defs>
<clipPath id="clip0_34_61">
<rect width="80" height="55" fill="white"/>
</clipPath>
</defs>
</svg>
