<?xml version="1.0" encoding="UTF-8"?>
<svg id="Layer_1" xmlns="http://www.w3.org/2000/svg" viewBox="0 0 123.35 84.76">
  <defs>
    <style>
      .cls-1 {
        fill: #5387c1;
      }

      .cls-1, .cls-2 {
        fill-rule: evenodd;
      }

      .cls-3 {
        fill: #e38020;
      }

      .cls-4 {
        fill: #243065;
      }

      .cls-2 {
        fill: #00944c;
      }
    </style>
  </defs>
  <rect class="cls-3" x="13.66" y="72.62" width="105.09" height="7.42"/>
  <path class="cls-1" d="M0,42.87l11.98,39.5s1.63,2.97,3.56-.54C17.42,78.26,47.07,0,47.07,0c0,0-5.49,9.26-12.62,22.82-6.29,11.88-13.86,27.13-20.2,42.37-1.93-2.48-13.02-21.43-14.26-22.32"/>
  <path class="cls-4" d="M40.94,59.94l7.52,2.47c-.5,2.28-1.29,4.16-2.38,5.69-1.09,1.53-2.47,2.72-4.06,3.46-1.63.79-3.71,1.19-6.19,1.19-3.02,0-5.49-.5-7.42-1.44-1.93-.94-3.56-2.62-4.95-5-1.43-2.43-2.13-5.44-2.13-9.21,0-4.95,1.24-8.76,3.71-11.43,2.43-2.67,5.89-4.01,10.39-4.01,3.51,0,6.29.74,8.27,2.28,2.03,1.53,3.51,3.86,4.5,7.08l-7.62,1.78c-.25-.89-.54-1.58-.84-1.98-.5-.74-1.04-1.29-1.78-1.63-.69-.4-1.43-.59-2.33-.59-1.93,0-3.42.84-4.45,2.52-.79,1.29-1.19,3.27-1.19,5.94,0,3.37.45,5.64,1.39,6.88.94,1.24,2.28,1.83,3.96,1.83s2.87-.5,3.76-1.48c.84-.99,1.44-2.48,1.83-4.36M59.2,57.52l-7.42-.84c.3-1.39.69-2.52,1.24-3.32.5-.79,1.29-1.48,2.28-2.08.69-.4,1.68-.74,2.92-.99,1.24-.2,2.57-.35,4.01-.35,2.33,0,4.21.15,5.59.45,1.44.25,2.57.84,3.51,1.73.64.64,1.19,1.48,1.58,2.62.35,1.14.54,2.23.54,3.22v9.65c0,.99.05,1.78.2,2.38.1.59.5,1.68.89,2.62h-7.28c-.3-.59-.59-1.39-.64-1.68-.1-.3-.2-.74-.3-1.39-.99,1.09-2.03,1.83-3.02,2.28-1.39.59-2.97.89-4.75.89-2.43,0-4.26-.59-5.49-1.78-1.24-1.24-1.88-2.72-1.88-4.45s.44-3.02,1.34-4.11c.94-1.04,2.57-1.83,5-2.38,2.92-.59,4.8-1.04,5.64-1.29s1.78-.59,2.72-.99c0-1.04-.2-1.78-.59-2.18-.4-.4-1.04-.59-2.08-.59-1.24,0-2.18.2-2.82.64-.49.35-.89.99-1.19,1.93M65.88,61.87c-1.04.45-2.18.79-3.32,1.09-1.58.45-2.57.94-2.97,1.34-.45.45-.64.99-.64,1.53,0,.69.2,1.19.64,1.63.4.4,1.04.59,1.83.59.89,0,1.68-.2,2.43-.64.74-.45,1.29-.99,1.58-1.63.3-.69.45-1.53.45-2.57v-1.34ZM78.16,50.44h7.28v3.56c.69-1.53,1.39-2.57,2.13-3.17.74-.59,1.68-.89,2.77-.89s2.38.4,3.76,1.14l-2.43,5.99c-.89-.45-1.63-.64-2.18-.64-.99,0-1.78.45-2.33,1.34-.79,1.29-1.19,3.66-1.19,7.18v7.67h-7.82v-22.18ZM118.45,63.41h-15.54c.15,1.34.5,2.33,1.04,3.02.74.94,1.68,1.39,2.92,1.39.74,0,1.49-.2,2.13-.59.45-.3.89-.74,1.39-1.39l7.62.74c-1.19,2.18-2.57,3.76-4.21,4.7-1.68.94-4.01,1.44-7.13,1.44-2.67,0-4.75-.4-6.29-1.24-1.53-.79-2.82-2.08-3.81-3.86-1.04-1.78-1.53-3.86-1.53-6.24,0-3.42,1.04-6.14,3.02-8.27,2.03-2.08,4.85-3.17,8.42-3.17,2.87,0,5.15.5,6.83,1.44,1.68.94,2.97,2.33,3.81,4.11.89,1.78,1.34,4.11,1.34,6.98v.94ZM110.58,59.4c-.15-1.58-.59-2.77-1.24-3.46-.64-.69-1.48-1.04-2.57-1.04-1.24,0-2.18.54-2.92,1.58-.5.64-.79,1.63-.89,2.92h7.62Z"/>
  <path class="cls-2" d="M100.19,80.49s1.93,1.68,3.71,2.23c1.83.54,4.06,1.73,4.41,2.13,0,0-3.07-2.77-4.7-3.56-1.58-.79-3.02-.99-3.42-.79"/>
  <path class="cls-2" d="M97.61,80.29s2.57-.5,4.36,4.36c0,0-1.58-1.14-2.57-2.18-1.04-1.04-1.78-2.18-1.78-2.18"/>
  <path class="cls-2" d="M29.8,66.63s-2.52-.3-4.16-1.24c-1.58-.99-3.96-1.78-4.45-1.78,0,0,4.06.4,5.74,1.04,1.63.59,2.72,1.53,2.87,1.98"/>
  <path class="cls-2" d="M31.68,68.36s-1.39-2.23-6.14-.3c0,0,1.88.4,3.32.44,1.43.1,2.82-.15,2.82-.15"/>
  <path class="cls-2" d="M33.56,67.17c-.89-.15-1.78-.54-2.43-1.58-.59-.99-.5-1.83.3-2.67,0,0,1.24,1.98,1.39,2.43.2.4.69,1.43.74,1.83"/>
  <path class="cls-2" d="M37.32,69.4s-1.78-.54-1.73-1.88c.05-1.39,1.58-2.13,1.58-2.13,0,0,.59,2.92.15,4.01"/>
  <path class="cls-2" d="M35.64,70.83s-1.39-2.23-6.14-.3c0,0,1.88.4,3.32.44,1.43.1,2.82-.15,2.82-.15"/>
  <path class="cls-2" d="M40.49,74.1s-1.24-2.33-6.14-.69c0,0,1.88.49,3.32.64,1.43.15,2.82.05,2.82.05"/>
  <path class="cls-2" d="M42.42,72.71s-1.63-.4-1.44-1.83c.15-1.44,1.24-2.28,1.24-2.28,0,0,.64,2.62.2,4.11"/>
  <path class="cls-2" d="M43.06,75.29s-4.06-2.97-5.4-4.16c-1.39-1.24-5.1-3.71-7.08-4.26,0,0,3.02.35,7.18,3.86,4.11,3.46,5.49,4.16,5.49,4.16,0,0-.3.54-.2.4"/>
  <path class="cls-2" d="M37.82,79.69s-2.13,1.63-4.06,2.03c-1.98.45-4.36,1.53-4.75,1.93,0,0,3.41-2.67,5.15-3.41,1.73-.74,3.27-.84,3.66-.54"/>
  <path class="cls-2" d="M40.54,79.6s-2.67-.69-4.9,4.31c0,0,1.73-1.09,2.87-2.08,1.14-1.04,2.03-2.23,2.03-2.23"/>
  <path class="cls-2" d="M41.13,77.27c-.79.59-1.78.94-3.02.59-1.19-.35-1.73-1.04-1.73-2.28,0,0,2.38.64,2.82.84.45.2,1.58.59,1.93.84"/>
  <path class="cls-2" d="M45.64,76.28s-1.78.89-2.72-.2c-.99-1.09-.35-2.82-.35-2.82,0,0,2.62,1.83,3.07,3.02"/>
  <path class="cls-2" d="M45.39,78.61s-2.67-.74-4.9,4.26c0,0,1.73-1.09,2.87-2.08,1.14-.99,2.03-2.18,2.03-2.18"/>
  <path class="cls-2" d="M51.48,77.52s-2.62-.89-5.2,3.96c0,0,1.83-.94,3.02-1.88,1.24-.94,2.18-2.08,2.18-2.08"/>
  <path class="cls-2" d="M51.97,75.09s-1.53.84-2.43-.35c-.94-1.24-.74-2.72-.74-2.72,0,0,2.43,1.58,3.17,3.07"/>
  <path class="cls-2" d="M54.35,76.58s-5.25.69-7.18.74c-1.98.1-6.58.89-8.56,1.93,0,0,2.57-1.93,8.32-2.33,5.74-.35,7.33-.79,7.33-.79,0,0,.15.59.1.45"/>
  <path class="cls-2" d="M107.86,67.76s2.52-.3,4.16-1.29c1.58-.99,3.96-1.78,4.5-1.78,0,0-4.11.4-5.79,1.04-1.68.64-2.77,1.53-2.87,2.03"/>
  <path class="cls-2" d="M105.93,69.5s1.39-2.28,6.19-.3c0,0-1.88.4-3.32.44-1.48.05-2.87-.15-2.87-.15"/>
  <path class="cls-2" d="M104.05,68.26c.89-.1,1.83-.54,2.43-1.53.59-1.04.5-1.88-.3-2.72,0,0-1.19,2.03-1.39,2.43-.15.4-.69,1.43-.74,1.83"/>
  <path class="cls-2" d="M100.29,70.54s1.78-.54,1.73-1.93c-.05-1.39-1.63-2.13-1.63-2.13,0,0-.54,2.92-.1,4.06"/>
  <path class="cls-2" d="M101.97,71.97s1.39-2.28,6.19-.3c0,0-1.93.4-3.37.44-1.44.05-2.82-.15-2.82-.15"/>
  <path class="cls-2" d="M97.12,75.24s1.19-2.38,6.14-.69c0,0-1.88.5-3.32.64-1.44.15-2.82.05-2.82.05"/>
  <path class="cls-2" d="M95.14,73.85s1.63-.4,1.48-1.83c-.2-1.44-1.29-2.33-1.29-2.33,0,0-.64,2.67-.2,4.16"/>
  <path class="cls-2" d="M94.54,76.48s4.01-3.02,5.4-4.21c1.39-1.24,5.1-3.71,7.13-4.31,0,0-3.07.35-7.23,3.86-4.16,3.51-5.54,4.21-5.54,4.21,0,0,.3.54.25.45"/>
  <path class="cls-2" d="M97.22,78.06c.69.54,1.63.99,2.77.69,1.19-.25,1.73-.84,1.83-2.03,0,0-2.33.5-2.72.64-.45.1-1.53.45-1.88.69"/>
  <path class="cls-2" d="M93.01,76.77s1.58.99,2.57,0c.99-.99.5-2.62.5-2.62,0,0-2.57,1.53-3.07,2.62"/>
  <path class="cls-2" d="M93.06,79s2.62-.5,4.41,4.36c0,0-1.58-1.14-2.62-2.18-.99-.99-1.78-2.18-1.78-2.18"/>
  <path class="cls-2" d="M87.37,77.62s2.57-.69,4.7,4.06c0,0-1.68-1.04-2.77-1.98-1.09-.99-1.93-2.08-1.93-2.08"/>
  <path class="cls-2" d="M87.07,75.24s1.39.94,2.33-.2c.99-1.09.89-2.47.89-2.47,0,0-2.43,1.34-3.22,2.67"/>
  <path class="cls-2" d="M84.74,76.53s4.95.94,6.78,1.19c1.83.2,6.14,1.24,7.92,2.33,0,0-2.33-2.03-7.72-2.72-5.4-.69-6.83-1.24-6.83-1.24,0,0-.2.54-.15.45"/>
  <path class="cls-2" d="M49.6,72.91s-2.43-.3-3.96-1.24c-1.53-.89-3.76-1.68-4.26-1.68,0,0,3.91.4,5.49.99,1.58.59,2.62,1.49,2.72,1.93"/>
  <path class="cls-2" d="M51.38,74.55s-1.29-2.13-5.84-.3c0,0,1.83.4,3.17.45,1.39.05,2.67-.15,2.67-.15"/>
  <path class="cls-2" d="M53.21,73.41c-.84-.15-1.73-.54-2.33-1.48-.54-.99-.45-1.78.3-2.57,0,0,1.14,1.88,1.34,2.28.15.4.64,1.39.69,1.78"/>
  <path class="cls-2" d="M56.78,75.54s-1.68-.5-1.63-1.83c.05-1.29,1.53-2.03,1.53-2.03,0,0,.54,2.82.1,3.86"/>
  <path class="cls-2" d="M55.19,76.87s-1.34-2.13-5.89-.25c0,0,1.83.4,3.22.45,1.34.05,2.67-.2,2.67-.2"/>
  <path class="cls-2" d="M59.8,79.99s-1.19-2.23-5.84-.64c0,0,1.78.5,3.17.64.2,0,.45,0,.69.05h1.39c.35-.05.59-.05.59-.05"/>
  <path class="cls-2" d="M61.63,78.7s-1.53-.4-1.34-1.78c.15-1.34,1.19-2.18,1.19-2.18,0,0,.59,2.52.15,3.96"/>
  <path class="cls-2" d="M60.74,80.04c-1.24-.94-2.87-2.18-3.66-2.87-1.29-1.14-4.8-3.51-6.73-4.06,0,0,2.92.35,6.88,3.66,1.93,1.68,3.27,2.67,4.06,3.27h-.54Z"/>
  <path class="cls-2" d="M67.27,72.81s.99-2.33.89-4.21c-.05-1.88.4-4.31.64-4.8,0,0-1.63,3.76-1.88,5.54-.3,1.78,0,3.17.35,3.47"/>
  <path class="cls-2" d="M67.91,75.34s-1.34-2.28,2.72-5.54c0,0-.54,1.88-1.19,3.17-.69,1.29-1.53,2.38-1.53,2.38"/>
  <path class="cls-2" d="M65.88,76.43c.35-.84.45-1.88-.2-2.87-.59-1.04-1.39-1.34-2.52-1.04,0,0,1.19,2.03,1.48,2.38.25.3.94,1.29,1.24,1.53"/>
  <path class="cls-2" d="M66.13,80.04c0-.59-.2-1.34-.89-1.73-1.29-.59-2.72.4-2.72.4,0,0,.89.74,1.88,1.34h1.73Z"/>
  <path class="cls-2" d="M68.16,79.99s-1.34-2.28,2.77-5.54c0,0-.59,1.88-1.24,3.17-.64,1.29-1.53,2.38-1.53,2.38"/>
  <path class="cls-2" d="M67.12,80.04c-.25-2.08-.35-4.9,0-6.39,0,0-.94,2.23-.4,6.39h.4Z"/>
  <path class="cls-2" d="M84.84,73.06s2.57-.3,4.26-1.29c1.63-.99,4.01-1.83,4.55-1.83,0,0-4.16.45-5.89,1.09-1.68.64-2.77,1.58-2.92,2.03"/>
  <path class="cls-2" d="M82.91,74.84s1.44-2.33,6.29-.3c0,0-1.93.4-3.42.45-1.44.05-2.87-.15-2.87-.15"/>
  <path class="cls-2" d="M80.98,73.61c.89-.15,1.83-.54,2.47-1.58.59-1.04.5-1.88-.3-2.77,0,0-1.24,2.08-1.44,2.47-.15.4-.69,1.44-.74,1.88"/>
  <path class="cls-2" d="M77.17,75.88s1.83-.54,1.78-1.93c-.1-1.44-1.68-2.18-1.68-2.18,0,0-.59,2.97-.1,4.11"/>
  <path class="cls-2" d="M78.85,77.37s1.44-2.33,6.29-.3c0,0-1.93.4-3.42.45-1.43.05-2.87-.15-2.87-.15"/>
  <path class="cls-2" d="M74.55,80.04c.79-.59,2.47-1.14,5.59-.1,0,0-.05.05-.25.1h-5.35Z"/>
  <path class="cls-2" d="M71.97,79.3s1.63-.45,1.44-1.88c-.15-1.49-1.29-2.38-1.29-2.38,0,0-.64,2.72-.15,4.26"/>
  <path class="cls-2" d="M73.8,80.04c1.14-.89,2.38-1.83,3.02-2.38,1.39-1.24,5.15-3.76,7.23-4.36,0,0-3.12.35-7.38,3.91-1.44,1.29-2.57,2.18-3.42,2.82h.54Z"/>
</svg>